<?xml version="1.0" encoding="utf-8"?>
<!-- Generator: Adobe Illustrator 19.0.1, SVG Export Plug-In . SVG Version: 6.00 Build 0)  -->
<svg version="1.1" id="Layer_1" xmlns="http://www.w3.org/2000/svg" xmlns:xlink="http://www.w3.org/1999/xlink" x="0px" y="0px"
	 viewBox="0 0 500 500" style="enable-background:new 0 0 500 500;" xml:space="preserve">
<style type="text/css">
	.st0{fill:#EF4438;}
	.st1{fill:#F9B91A;}
</style>
<g>
	<path d="M159.8,215.9h-59.3c-0.6,0-1.1,0.2-1.6,0.7c-0.4,0.4-0.7,1-0.7,1.6v46.4c0,0.6,0.2,1.1,0.7,1.6c0.4,0.4,1,0.7,1.6,0.7h59.3
		v10.9h-59.3c-3.6,0-6.7-1.3-9.3-3.8c-2.6-2.6-3.8-5.6-3.8-9.3v-46.4c0-3.6,1.3-6.7,3.8-9.3c2.6-2.6,5.6-3.8,9.3-3.8h59.3V215.9z"/>
	<path d="M237,205v10.9h-55.7v20h44.8v10.9h-44.8v20H237v10.9h-66.6V205H237z"/>
	<path d="M319.6,218.1v4.2h-10.9v-4.2c0-0.6-0.2-1.1-0.7-1.6c-0.4-0.4-1-0.7-1.6-0.7h-46.4c-0.6,0-1.1,0.2-1.6,0.7
		c-0.4,0.4-0.7,1-0.7,1.6v15.5c0,0.6,0.2,1.1,0.7,1.6c0.4,0.4,1,0.7,1.6,0.7h46.4c3.6,0,6.7,1.3,9.3,3.8c2.6,2.6,3.8,5.6,3.8,9.3
		v15.5c0,3.6-1.3,6.7-3.8,9.3c-2.6,2.6-5.6,3.8-9.3,3.8h-46.4c-3.6,0-6.7-1.3-9.3-3.8c-2.6-2.6-3.8-5.6-3.8-9.3v-4.2h10.9v4.2
		c0,0.6,0.2,1.1,0.7,1.6c0.4,0.4,1,0.7,1.6,0.7h46.4c0.6,0,1.1-0.2,1.6-0.7c0.4-0.4,0.7-1,0.7-1.6V249c0-0.6-0.2-1.1-0.7-1.6
		c-0.4-0.4-1-0.7-1.6-0.7h-46.4c-3.6,0-6.7-1.3-9.3-3.8c-2.6-2.6-3.8-5.6-3.8-9.3v-15.5c0-3.6,1.3-6.7,3.8-9.3
		c2.6-2.6,5.6-3.8,9.3-3.8h46.4c3.6,0,6.7,1.3,9.3,3.8C318.3,211.4,319.6,214.5,319.6,218.1z"/>
</g>
<path class="st0" d="M330.6,228"/>
<path d="M361.7,183.3c4,9.8,6.1,20.4,7.3,30.3c1.2,9.7,1.6,18.2,0,28.2c-3.8,3.5-10.4,4.8-15.8,5.6c-7.4,1-14.5,1.4-22.5,0
	c1.9-2.6,4.4-6.1,7.2-10.4c4.4-6.9,8.3-14,11.9-21.6C354.8,205.2,358.9,196.5,361.7,183.3z"/>
<path class="st1" d="M375.4,241.8c1-11-0.2-32.6-2.9-42.9c-2.9-10.8-6.1-16-13.6-33.3c9.6,5.2,33.1,24.2,42.6,37.3
	c7.7,10.6,10.8,27.8,9.2,37.9c-6.5,3-17,2.8-22.7,2.5"/>
<path d="M333.8,255.2c10.4-2.1,37.4-6.7,46.9-7.2c9.8-0.5,23-1.7,30,2c2,7.2,1.6,21-3.2,30.9c-2.8-2.1-13.9-7.8-20.9-10.9
	c-8.9-4-14.3-6.7-25.3-9.2C351.1,258.5,348.9,258,333.8,255.2z"/>
</svg>
