<?xml version="1.0" encoding="utf-8"?>
<!-- Generator: Adobe Illustrator 19.0.1, SVG Export Plug-In . SVG Version: 6.00 Build 0)  -->
<svg version="1.1" id="Layer_1" xmlns="http://www.w3.org/2000/svg" xmlns:xlink="http://www.w3.org/1999/xlink" x="0px" y="0px"
	 viewBox="0 0 500 500" style="enable-background:new 0 0 500 500;" xml:space="preserve">
<style type="text/css">
	.st0{fill:#EF4438;}
	.st1{fill:#F9B91A;}
</style>
<g>
	<path d="M159.8,215.9h-59.3c-0.6,0-1.1,0.2-1.6,0.7c-0.4,0.4-0.7,1-0.7,1.6v46.4c0,0.6,0.2,1.1,0.7,1.6c0.4,0.4,1,0.7,1.6,0.7h59.3
		v10.9h-59.3c-3.6,0-6.7-1.3-9.3-3.8c-2.6-2.6-3.8-5.6-3.8-9.3v-46.4c0-3.6,1.3-6.7,3.8-9.3c2.6-2.6,5.6-3.8,9.3-3.8h59.3V215.9z"/>
	<path d="M237,205v10.9h-55.7v20h44.8v10.9h-44.8v20H237v10.9h-66.6V205H237z"/>
	<path d="M319.6,218.1v4.2h-10.9v-4.2c0-0.6-0.2-1.1-0.7-1.6c-0.4-0.4-1-0.7-1.6-0.7h-46.4c-0.6,0-1.1,0.2-1.6,0.7
		c-0.4,0.4-0.7,1-0.7,1.6v15.5c0,0.6,0.2,1.1,0.7,1.6c0.4,0.4,1,0.7,1.6,0.7h46.4c3.6,0,6.7,1.3,9.3,3.8c2.6,2.6,3.8,5.6,3.8,9.3
		v15.5c0,3.6-1.3,6.7-3.8,9.3c-2.6,2.6-5.6,3.8-9.3,3.8h-46.4c-3.6,0-6.7-1.3-9.3-3.8c-2.6-2.6-3.8-5.6-3.8-9.3v-4.2h10.9v4.2
		c0,0.6,0.2,1.1,0.7,1.6c0.4,0.4,1,0.7,1.6,0.7h46.4c0.6,0,1.1-0.2,1.6-0.7c0.4-0.4,0.7-1,0.7-1.6V249c0-0.6-0.2-1.1-0.7-1.6
		c-0.4-0.4-1-0.7-1.6-0.7h-46.4c-3.6,0-6.7-1.3-9.3-3.8c-2.6-2.6-3.8-5.6-3.8-9.3v-15.5c0-3.6,1.3-6.7,3.8-9.3
		c2.6-2.6,5.6-3.8,9.3-3.8h46.4c3.6,0,6.7,1.3,9.3,3.8C318.3,211.4,319.6,214.5,319.6,218.1z"/>
</g>
<g>
	<path d="M103.8,295.1H90.4c-0.1,0-0.3,0-0.4,0.1s-0.1,0.2-0.1,0.4V306c0,0.1,0,0.3,0.1,0.4s0.2,0.1,0.4,0.1h13.4v2.5H90.4
		c-0.8,0-1.5-0.3-2.1-0.9c-0.6-0.6-0.9-1.3-0.9-2.1v-10.5c0-0.8,0.3-1.5,0.9-2.1c0.6-0.6,1.3-0.9,2.1-0.9h13.4V295.1z"/>
	<path d="M109.1,292.6h10.5c0.8,0,1.5,0.3,2.1,0.9c0.6,0.6,0.9,1.3,0.9,2.1V309h-2.5v-5.7h-11.5v5.7h-2.5v-13.4
		c0-0.8,0.3-1.5,0.9-2.1C107.6,292.9,108.3,292.6,109.1,292.6z M108.6,300.8h11.5v-5.2c0-0.1,0-0.3-0.1-0.4
		c-0.1-0.1-0.2-0.1-0.4-0.1h-10.5c-0.1,0-0.3,0-0.4,0.1c-0.1,0.1-0.1,0.2-0.1,0.4V300.8z"/>
	<path d="M141.5,295.6v4.6c0,0.8-0.3,1.5-0.9,2.1s-1.3,0.9-2.1,0.9h-1.7l4.6,5.5v0.3h-2.9l-4.9-5.8h-5.6c-0.1,0-0.3,0-0.5,0v5.9
		h-2.5v-16.3h13.4c0.8,0,1.5,0.3,2.1,0.9S141.5,294.8,141.5,295.6z M128.1,300.7h10.5c0.1,0,0.3,0,0.4-0.1s0.1-0.2,0.1-0.4v-4.6
		c0-0.1,0-0.3-0.1-0.4s-0.2-0.1-0.4-0.1h-10.5c-0.1,0-0.3,0-0.4,0.1c-0.1,0.1-0.1,0.2-0.1,0.4v4.6c0,0.1,0,0.3,0.1,0.4
		C127.8,300.6,127.9,300.7,128.1,300.7z"/>
	<path d="M160.2,295.6v1h-2.5v-1c0-0.1,0-0.3-0.1-0.4c-0.1-0.1-0.2-0.1-0.4-0.1h-10.5c-0.1,0-0.3,0-0.4,0.1s-0.1,0.2-0.1,0.4V306
		c0,0.1,0,0.3,0.1,0.4s0.2,0.1,0.4,0.1h10.5c0.1,0,0.3,0,0.4-0.1c0.1-0.1,0.1-0.2,0.1-0.4v-3.5h-3.9V300h6.3v6
		c0,0.8-0.3,1.5-0.9,2.1c-0.6,0.6-1.3,0.9-2.1,0.9h-10.5c-0.8,0-1.5-0.3-2.1-0.9c-0.6-0.6-0.9-1.3-0.9-2.1v-10.5
		c0-0.8,0.3-1.5,0.9-2.1c0.6-0.6,1.3-0.9,2.1-0.9h10.5c0.8,0,1.5,0.3,2.1,0.9C159.9,294.1,160.2,294.8,160.2,295.6z"/>
	<path d="M165.6,292.6h10.5c0.8,0,1.5,0.3,2.1,0.9c0.6,0.6,0.9,1.3,0.9,2.1V306c0,0.8-0.3,1.5-0.9,2.1c-0.6,0.6-1.3,0.9-2.1,0.9
		h-10.5c-0.8,0-1.5-0.3-2.1-0.9c-0.6-0.6-0.9-1.3-0.9-2.1v-10.5c0-0.8,0.3-1.5,0.9-2.1C164.1,292.9,164.8,292.6,165.6,292.6z
		 M165.6,306.5h10.5c0.1,0,0.3,0,0.4-0.1c0.1-0.1,0.1-0.2,0.1-0.4v-10.5c0-0.1,0-0.3-0.1-0.4c-0.1-0.1-0.2-0.1-0.4-0.1h-10.5
		c-0.1,0-0.3,0-0.4,0.1s-0.1,0.2-0.1,0.4V306c0,0.1,0,0.3,0.1,0.4S165.5,306.5,165.6,306.5z"/>
	<path d="M203.2,292.6v2.5h-12.5v4.5h10.1v2.5h-10.1v4.5h12.5v2.5h-15v-16.4H203.2z"/>
	<path d="M218.8,292.6h2.9v0.3l-6.6,7.8l6.6,7.8v0.3h-2.9l-5.3-6.3l-5.3,6.3h-2.9v-0.3l6.6-7.8l-6.6-7.8v-0.3h2.9l5.3,6.3
		L218.8,292.6z"/>
	<path d="M224,292.6h13.4c0.8,0,1.5,0.3,2.1,0.9c0.6,0.6,0.9,1.3,0.9,2.1v4.6c0,0.8-0.3,1.5-0.9,2.1c-0.6,0.6-1.3,0.9-2.1,0.9h-10.5
		c-0.1,0-0.3,0-0.5,0v5.9H224V292.6z M237.9,300.2v-4.6c0-0.1,0-0.3-0.1-0.4s-0.2-0.1-0.4-0.1h-10.5c-0.1,0-0.3,0-0.4,0.1
		c-0.1,0.1-0.1,0.2-0.1,0.4v4.6c0,0.1,0,0.3,0.1,0.4c0.1,0.1,0.2,0.1,0.4,0.1h10.5c0.1,0,0.3,0,0.4-0.1S237.9,300.3,237.9,300.2z"/>
	<path d="M257,292.6v2.5h-12.5v4.5h10.1v2.5h-10.1v4.5H257v2.5h-15v-16.4H257z"/>
	<path d="M275.7,295.6v4.6c0,0.8-0.3,1.5-0.9,2.1c-0.6,0.6-1.3,0.9-2.1,0.9h-1.7l4.6,5.5v0.3h-2.9l-4.9-5.8h-5.6c-0.1,0-0.3,0-0.5,0
		v5.9h-2.5v-16.3h13.4c0.8,0,1.5,0.3,2.1,0.9C275.4,294.1,275.7,294.8,275.7,295.6z M262.3,300.7h10.5c0.1,0,0.3,0,0.4-0.1
		c0.1-0.1,0.1-0.2,0.1-0.4v-4.6c0-0.1,0-0.3-0.1-0.4c-0.1-0.1-0.2-0.1-0.4-0.1h-10.5c-0.1,0-0.3,0-0.4,0.1s-0.1,0.2-0.1,0.4v4.6
		c0,0.1,0,0.3,0.1,0.4S262.2,300.7,262.3,300.7z"/>
	<path d="M277.3,292.6h16.4v2.5h-7V309h-2.5v-13.9h-7V292.6z"/>
	<path d="M318.2,295.6v1h-2.5v-1c0-0.1,0-0.3-0.1-0.4c-0.1-0.1-0.2-0.1-0.4-0.1h-10.5c-0.1,0-0.3,0-0.4,0.1s-0.1,0.2-0.1,0.4v3.5
		c0,0.1,0,0.3,0.1,0.4s0.2,0.1,0.4,0.1h10.5c0.8,0,1.5,0.3,2.1,0.9c0.6,0.6,0.9,1.3,0.9,2.1v3.5c0,0.8-0.3,1.5-0.9,2.1
		c-0.6,0.6-1.3,0.9-2.1,0.9h-10.5c-0.8,0-1.5-0.3-2.1-0.9c-0.6-0.6-0.9-1.3-0.9-2.1v-1h2.5v1c0,0.1,0,0.3,0.1,0.4s0.2,0.1,0.4,0.1
		h10.5c0.1,0,0.3,0,0.4-0.1c0.1-0.1,0.1-0.2,0.1-0.4v-3.5c0-0.1,0-0.3-0.1-0.4c-0.1-0.1-0.2-0.1-0.4-0.1h-10.5
		c-0.8,0-1.5-0.3-2.1-0.9c-0.6-0.6-0.9-1.3-0.9-2.1v-3.5c0-0.8,0.3-1.5,0.9-2.1c0.6-0.6,1.3-0.9,2.1-0.9h10.5c0.8,0,1.5,0.3,2.1,0.9
		C317.9,294.1,318.2,294.8,318.2,295.6z"/>
	<path d="M334.4,292.6h2.9l-7.5,10.2v6.1h-2.5v-6.1l-7.5-10.2h2.9l5.9,7.5L334.4,292.6z"/>
	<path d="M354.9,295.6v1h-2.5v-1c0-0.1,0-0.3-0.1-0.4c-0.1-0.1-0.2-0.1-0.4-0.1h-10.5c-0.1,0-0.3,0-0.4,0.1s-0.1,0.2-0.1,0.4v3.5
		c0,0.1,0,0.3,0.1,0.4s0.2,0.1,0.4,0.1H352c0.8,0,1.5,0.3,2.1,0.9c0.6,0.6,0.9,1.3,0.9,2.1v3.5c0,0.8-0.3,1.5-0.9,2.1
		c-0.6,0.6-1.3,0.9-2.1,0.9h-10.5c-0.8,0-1.5-0.3-2.1-0.9c-0.6-0.6-0.9-1.3-0.9-2.1v-1h2.5v1c0,0.1,0,0.3,0.1,0.4s0.2,0.1,0.4,0.1
		H352c0.1,0,0.3,0,0.4-0.1c0.1-0.1,0.1-0.2,0.1-0.4v-3.5c0-0.1,0-0.3-0.1-0.4c-0.1-0.1-0.2-0.1-0.4-0.1h-10.5
		c-0.8,0-1.5-0.3-2.1-0.9c-0.6-0.6-0.9-1.3-0.9-2.1v-3.5c0-0.8,0.3-1.5,0.9-2.1c0.6-0.6,1.3-0.9,2.1-0.9H352c0.8,0,1.5,0.3,2.1,0.9
		C354.7,294.1,354.9,294.8,354.9,295.6z"/>
	<path d="M356.6,292.6h16.4v2.5h-7V309h-2.5v-13.9h-7V292.6z"/>
	<path d="M389.7,292.6v2.5h-12.5v4.5h10.1v2.5h-10.1v4.5h12.5v2.5h-15v-16.4H389.7z"/>
	<path d="M401.2,300.2l6.3-7.6h2.9V309H408v-13.1l-6.8,8.1l-6.8-8.1V309H392v-16.4h2.9L401.2,300.2z"/>
</g>
<path class="st0" d="M330.6,228"/>
<path d="M361.7,183.3c4,9.8,6.1,20.4,7.3,30.3c1.2,9.7,1.6,18.2,0,28.2c-3.8,3.5-10.4,4.8-15.8,5.6c-7.4,1-14.5,1.4-22.5,0
	c1.9-2.6,4.4-6.1,7.2-10.4c4.4-6.9,8.3-14,11.9-21.6C354.8,205.2,358.9,196.5,361.7,183.3z"/>
<path class="st1" d="M375.4,241.8c1-11-0.2-32.6-2.9-42.9c-2.9-10.8-6.1-16-13.6-33.3c9.6,5.2,33.1,24.2,42.6,37.3
	c7.7,10.6,10.8,27.8,9.2,37.9c-6.5,3-17,2.8-22.7,2.5"/>
<path d="M333.8,255.2c10.4-2.1,37.4-6.7,46.9-7.2c9.8-0.5,23-1.7,30,2c2,7.2,1.6,21-3.2,30.9c-2.8-2.1-13.9-7.8-20.9-10.9
	c-8.9-4-14.3-6.7-25.3-9.2C351.1,258.5,348.9,258,333.8,255.2z"/>
</svg>
